<svg xmlns="http://www.w3.org/2000/svg" viewBox="0 0 196.23 196.23"><defs><style>.cls-1{fill:#fff;}.cls-2{fill:#e43830;}.cls-3{fill:#a51f24;}.cls-4{fill:#f7c2af;}.cls-5{fill:#3e3a39;}.cls-6{fill:#e6dc77;}.cls-7{fill:#e0f1ef;}.cls-8{fill:#f29d83;}</style></defs><title>資產 260</title><g id="圖層_2" data-name="圖層 2"><g id="圖層_5" data-name="圖層 5"><rect class="cls-1" width="196.23" height="196.23"/><path class="cls-2" d="M152.35,97.13c3.43,32.69,12.56,65.18-44.93,65.18-59,0-57.29-32.81-51.62-65.18C62.06,61.42,66,37.61,103.93,37.61,139.7,37.61,149,65.42,152.35,97.13Z"/><path class="cls-3" d="M150,97.13c1.76,16.47,8.53,41.62-6.48,54-10.68,8.83-27.22,9.07-40.29,8.7-12.68-.36-27.48-2.1-37.39-10.9-15.45-13.73-10-38.17-6.89-55.88C61,81.2,62.84,68.4,68.62,57.63,74.12,47.36,83.54,42,95,40.51c15.32-2,31.69,1,41.59,13.77,9.27,12,11.85,28.21,13.43,42.85.33,3,5.09,3,4.76,0-1.55-14.34-4-29.51-11.78-41.93-7.47-11.88-19.46-18.44-33.3-19.72-12.9-1.19-27.67.72-37.58,9.79-9,8.22-12.5,20.76-15,32.25-2.8,12.86-5.46,26.19-6.15,39.37-.53,10.15.53,21,6.44,29.65,6.91,10,18.74,14.69,30.36,16.64,15.69,2.64,34.34,3,49.37-3,26.56-10.6,20-40.53,17.64-63.1C154.41,94.12,149.65,94.08,150,97.13Z"/><path class="cls-4" d="M75.21,53.91l8.26,8.67s22.06-10.22,36.31-.31l7-9.83s4,9.71,4.87,12.29c2.36,7.13,5.18,18.59,9.39,26.45,3.91,7.31,4,27.47-25.2,27.06-5.19-.07-10.37-.32-15.53.11-14.21,1.2-41.34.11-31.16-27.81,0,0,4.09-17.14,4.94-23C74.6,64.19,75.21,53.91,75.21,53.91Z"/><ellipse class="cls-5" cx="87.26" cy="86.04" rx="4.24" ry="5.37"/><ellipse class="cls-5" cx="119.78" cy="86.04" rx="4.24" ry="5.37"/><path class="cls-6" d="M119.78,144.9s2.77-7.58,3.2-12.83c.23-2.75,0-6.68,1-8.17a2.32,2.32,0,0,1,3.21-.44c1,.78,1.43,2.62,1.34,4.09C128.4,130.12,124.19,140.68,119.78,144.9Z"/><path class="cls-6" d="M130,151.68s3.83-8.47,4.86-14.58c.53-3.2.64-7.87,2-9.45a2.41,2.41,0,0,1,3.56,0c1.06,1.09,1.3,3.32,1,5C141,135.69,135.26,147.43,130,151.68Z"/><path class="cls-6" d="M88.37,144.9s-2.79-7.58-3.22-12.83c-.23-2.75,0-6.68-1-8.17a2.34,2.34,0,0,0-3.23-.44c-1,.78-1.45,2.62-1.35,4.09C79.7,130.12,83.93,140.68,88.37,144.9Z"/><path class="cls-6" d="M79.51,151.68s-3.85-8.47-4.88-14.58c-.54-3.2-.65-7.87-2-9.45a2.45,2.45,0,0,0-3.59,0c-1.06,1.09-1.3,3.32-1,5C68.45,135.69,74.21,147.43,79.51,151.68Z"/><path class="cls-7" d="M115.52,99.17c1.18,4,6.9,11.13-11.16,11.13-17.56,0-10.84-8.12-9.93-12s3.94-6.88,10.47-6.88S114.4,95.41,115.52,99.17Z"/><rect class="cls-8" x="98.1" y="97.13" width="4.14" height="9.91" rx="2.07" ry="2.07"/><rect class="cls-8" x="107.7" y="97.13" width="4.14" height="9.91" rx="2.07" ry="2.07"/></g></g></svg>