<svg xmlns="http://www.w3.org/2000/svg" xmlns:xlink="http://www.w3.org/1999/xlink" viewBox="0 0 196.23 196.23"><defs><style>.cls-1{fill:#fff;}.cls-2{fill:#e43830;}.cls-3{fill:#a51f24;}.cls-4{fill:#962224;}.cls-5{fill:#e6dc77;}.cls-6{fill:#c7000b;}.cls-7{fill:url(#Of_V_3);}.cls-8{fill:#e7c359;}.cls-9{fill:#c09f58;}</style><linearGradient id="Of_V_3" x1="90.05" y1="144.2" x2="111.83" y2="144.2" gradientUnits="userSpaceOnUse"><stop offset="0" stop-color="#730000"/><stop offset="1" stop-color="#9b0000"/></linearGradient></defs><title>資產 249</title><g id="圖層_2" data-name="圖層 2"><g id="圖層_5" data-name="圖層 5"><rect class="cls-1" width="196.23" height="196.23"/><path class="cls-2" d="M152.37,164.82H46.88a3,3,0,0,1-3-3V95.2a3,3,0,0,1,3-3H152.37a3,3,0,0,1,3,3v66.57A3.05,3.05,0,0,1,152.37,164.82Z"/><rect class="cls-3" x="43.84" y="85.09" width="111.58" height="20.87"/><rect class="cls-4" x="164.98" y="93.92" width="4.68" height="13.75" rx="2.34" ry="2.34"/><rect class="cls-2" x="162.59" y="104.84" width="9.45" height="16.91" rx="4.72" ry="4.72"/><rect class="cls-4" x="27.7" y="93.92" width="4.68" height="13.75" rx="2.34" ry="2.34"/><rect class="cls-2" x="25.32" y="104.84" width="9.45" height="16.91" rx="4.72" ry="4.72"/><path class="cls-5" d="M67.24,40.76h65.85S132.53,75,175.61,96.84H24.05S64.2,73.5,67.24,40.76Z"/><rect class="cls-6" x="75.15" y="121.71" width="6.76" height="36.41" rx="3.38" ry="3.38"/><rect class="cls-6" x="120" y="121.71" width="6.76" height="36.41" rx="3.38" ry="3.38"/><rect class="cls-6" x="97.56" y="93.34" width="6.76" height="42.86" rx="3.38" ry="3.38" transform="translate(215.71 13.83) rotate(90)"/><rect class="cls-7" x="90.05" y="123.58" width="21.78" height="41.23"/><path class="cls-8" d="M40.14,96.82l-6.26,0s16.79-9.09,28.67-23.31A48.21,48.21,0,0,0,73.38,43.22h3.21A47.76,47.76,0,0,1,65.51,74.89,115.17,115.17,0,0,1,40.14,96.82Z"/><path class="cls-8" d="M58,96.83l-8,0s13.34-10,22.11-21.59c9.88-13.05,9.41-32,9.41-32l3.64-.14c-1-1.57-.09,17.83-9.08,31.59C66.28,89.75,58,96.83,58,96.83Z"/><path class="cls-8" d="M77.09,96.84H70.31s8.25-10.09,13.3-20.33c5.18-10.46,5.67-33.29,5.67-33.29h3.2s.57,20.24-4.61,33.36C85.31,83.08,77.09,96.84,77.09,96.84Z"/><path class="cls-8" d="M102.37,96.84H94.82s.74-9.06,1.81-20.43c.37-3.94.33-33,.33-33h3s.76,26.17.83,33.51C100.88,83.89,102.37,96.84,102.37,96.84Z"/><path class="cls-8" d="M157.06,96.83l6.52,0a127.44,127.44,0,0,1-26.64-23.48,51,51,0,0,1-11.48-30.15H123s-.7,17.37,10.51,30.73A161,161,0,0,0,157.06,96.83Z"/><path class="cls-8" d="M139.92,96.84h5.89s-13.86-11.51-20-21.17c-10.53-16.69-9.28-32.45-9.28-32.45H114a68.73,68.73,0,0,0,8.79,33.19C126.28,82.49,139.92,96.84,139.92,96.84Z"/><path class="cls-8" d="M123.1,96.84H129A200,200,0,0,1,115.51,76c-8.36-15.49-7.31-32.92-7.31-32.92h-3.12a84,84,0,0,0,6.65,33C114.51,82.5,123.1,96.84,123.1,96.84Z"/><path class="cls-9" d="M26.63,91.67C22.55,94,22.49,95,23.35,96.42c.74,1.2,2.48.41,5.21-1.14,0,0,45.6-20.22,40.37-60.68a2,2,0,0,0-2-1.72h0A1.89,1.89,0,0,0,65,35C69.34,70.11,26.63,91.67,26.63,91.67Z"/><path class="cls-9" d="M177.11,96.42c.86-1.39.81-2.46-3.27-4.75,0,0-41.93-18.2-38.4-56.72a1.91,1.91,0,0,0-1.91-2.07h0a2,2,0,0,0-2,1.78c-5.17,40.43,40.37,60.62,40.37,60.62C174.63,96.83,176.38,97.62,177.11,96.42Z"/><rect class="cls-9" x="66.67" y="38.46" width="68.62" height="4.93" rx="2.46" ry="2.46"/><rect class="cls-9" x="22.18" y="93.06" width="155.37" height="4.93" rx="2.46" ry="2.46"/></g></g></svg>