<svg xmlns="http://www.w3.org/2000/svg" xmlns:xlink="http://www.w3.org/1999/xlink" viewBox="0 0 196.23 196.23"><defs><style>.cls-1{fill:#fff;}.cls-2{fill:#e83d3d;}.cls-3{fill:#e06927;}.cls-4{fill:#e59127;}.cls-5,.cls-7,.cls-8{fill:none;stroke-miterlimit:10;}.cls-5{stroke-width:5.12px;stroke:url(#Of_V_17);}.cls-6{fill:url(#未命名漸層_14);}.cls-7,.cls-8{stroke:#a51f24;}.cls-7{stroke-width:4.15px;}.cls-8{stroke-width:1.66px;}.cls-9{fill:#a51f24;}</style><linearGradient id="Of_V_17" x1="58.25" y1="99.07" x2="144.4" y2="99.07" gradientUnits="userSpaceOnUse"><stop offset="0" stop-color="#c7000b"/><stop offset="0.77" stop-color="#910000"/></linearGradient><linearGradient id="未命名漸層_14" x1="85.22" y1="67.74" x2="117.68" y2="67.74" gradientUnits="userSpaceOnUse"><stop offset="0" stop-color="#e6dc77"/><stop offset="0.3" stop-color="#e9df72"/><stop offset="0.66" stop-color="#f2e763"/><stop offset="1" stop-color="#fff34e"/></linearGradient></defs><title>資產 262</title><g id="圖層_2" data-name="圖層 2"><g id="圖層_5" data-name="圖層 5"><rect class="cls-1" width="196.23" height="196.23"/><circle class="cls-2" cx="101.32" cy="99.07" r="40.52"/><ellipse class="cls-3" cx="101.32" cy="92.69" rx="37.38" ry="32.3"/><ellipse class="cls-4" cx="100.77" cy="92.69" rx="25.73" ry="22.24"/><circle class="cls-5" cx="101.32" cy="99.07" r="40.52"/><ellipse class="cls-6" cx="101.45" cy="67.74" rx="16.23" ry="5.06"/><path class="cls-7" d="M81.81,64a19.64,19.64,0,0,1,39.28,0"/><path class="cls-8" d="M141.3,91.16c0,10.41-18,18.85-40.18,18.85s-40.19-8.44-40.19-18.85"/><path class="cls-8" d="M139,83.3c-1.39,8.85-16.12,15.77-37.28,15.77S65.2,91.73,64.25,82.33"/><path class="cls-8" d="M142,104.82c0,9.05-18,16.38-40.24,16.38s-40.24-7.33-40.24-16.38"/><path class="cls-8" d="M134.39,76.1C130,83,119.14,89.52,100,88.83S77.46,84.63,68.26,76.1"/><path class="cls-8" d="M126.66,68.88C125.31,75.52,115.14,79,100.71,79S77.12,74.86,74.89,67.9"/><path class="cls-8" d="M136.46,118.46c0,7.22-15.73,13.08-35.14,13.08s-35.13-5.86-35.13-13.08"/><path class="cls-9" d="M99.6,157.66l3.12,7.77a.91.91,0,0,0,1.54.2l2.41-3.27a.92.92,0,0,1,1.19-.21l3.56,2.09a.91.91,0,0,0,1.25-.29l1.55-2.85a.89.89,0,0,1,1.18-.32l2.45,1.19c.75.37,1.6-.37,1.13-1,0,0-7.32-7.47-9.58-10.38-3.29-4.24-3.43-5.76-3.86-7-.86-2.46-4.62-1.77-5.8-1a6.73,6.73,0,0,0-2.81,5.66A39.73,39.73,0,0,0,99.6,157.66Z"/><rect class="cls-9" x="118.95" y="15.51" width="4.27" height="44.4" rx="2.14" ry="2.14" transform="translate(120.02 -89.11) rotate(72.22)"/></g></g></svg>