<svg xmlns="http://www.w3.org/2000/svg" xmlns:xlink="http://www.w3.org/1999/xlink" viewBox="0 0 196.23 196.23"><defs><style>.cls-1{fill:#fff;}.cls-2{fill:none;stroke:#a51f24;stroke-miterlimit:10;stroke-width:8px;}.cls-3{fill:url(#未命名漸層_14);}.cls-4{fill:#e06527;}.cls-5{fill:url(#未命名漸層_14-2);}.cls-6{fill:url(#未命名漸層_14-3);}.cls-7{fill:url(#未命名漸層_14-4);}.cls-8{fill:url(#未命名漸層_14-5);}.cls-9{fill:url(#未命名漸層_14-6);}.cls-10{fill:url(#未命名漸層_14-7);}.cls-11{fill:url(#未命名漸層_14-8);}</style><linearGradient id="未命名漸層_14" x1="98.11" y1="55.92" x2="98.11" y2="92.5" gradientUnits="userSpaceOnUse"><stop offset="0" stop-color="#e6dc77"/><stop offset="0.3" stop-color="#e9df72"/><stop offset="0.66" stop-color="#f2e763"/><stop offset="1" stop-color="#fff34e"/></linearGradient><linearGradient id="未命名漸層_14-2" x1="97.75" y1="71.24" x2="97.75" y2="52.05" xlink:href="#未命名漸層_14"/><linearGradient id="未命名漸層_14-3" x1="58.14" y1="81.45" x2="58.14" y2="118.03" xlink:href="#未命名漸層_14"/><linearGradient id="未命名漸層_14-4" x1="57.78" y1="96.77" x2="57.78" y2="77.57" xlink:href="#未命名漸層_14"/><linearGradient id="未命名漸層_14-5" x1="144.39" y1="80.5" x2="144.39" y2="117.09" xlink:href="#未命名漸層_14"/><linearGradient id="未命名漸層_14-6" x1="144.03" y1="95.83" x2="144.03" y2="76.63" xlink:href="#未命名漸層_14"/><linearGradient id="未命名漸層_14-7" x1="101.87" y1="107.38" x2="101.87" y2="157.95" xlink:href="#未命名漸層_14"/><linearGradient id="未命名漸層_14-8" x1="101.38" y1="128.56" x2="101.38" y2="102.03" xlink:href="#未命名漸層_14"/></defs><title>資產 264</title><g id="圖層_2" data-name="圖層 2"><g id="圖層_5" data-name="圖層 5"><rect class="cls-1" width="196.23" height="196.23"/><path class="cls-2" d="M126.3,57.84s-1.3-4.72-11.66.65c-2.43-3.75-9.07-6.44-16.89-6.44s-14.46,2.69-16.89,6.44c-4.64-2-11.29-3.62-12.15,2.25-1.26,8.56,9,34.54,32.72,31.52,3.14-.4,7.58-1.12,10.26-2.79C118.93,85,131.77,73.38,126.3,57.84Z"/><path class="cls-3" d="M85.41,60.74s-15.37-9.13-16.7,0c-1.26,8.56,9,34.54,32.72,31.52,3.14-.4,7.58-1.12,10.26-2.79,7.24-4.5,20.08-16.09,14.61-31.63,0,0-1.47-5.34-13.72,1.79S85.41,60.74,85.41,60.74Z"/><path class="cls-4" d="M80.94,60.19s-12.33-4.56-7.88,3c6.25,10.6,43.73,11.72,51.22-2.67,1-2-1.48-6.11-9.61-.34C114.67,60.19,90.3,69,80.94,60.19Z"/><ellipse class="cls-5" cx="97.75" cy="61.65" rx="17.89" ry="9.6"/><path class="cls-2" d="M86.32,83.37S85,78.64,74.67,84c-2.44-3.75-9.08-6.45-16.89-6.45S43.32,80.27,40.88,84c-4.64-2-11.29-3.62-12.15,2.25-1.25,8.56,9,34.54,32.72,31.51,3.14-.4,7.58-1.11,10.27-2.78C79,110.5,91.8,98.9,86.32,83.37Z"/><path class="cls-6" d="M45.43,86.27s-15.36-9.14-16.7,0c-1.25,8.56,9,34.54,32.72,31.51,3.14-.4,7.58-1.11,10.27-2.78C79,110.5,91.8,98.9,86.32,83.37c0,0-1.46-5.35-13.71,1.78S45.43,86.27,45.43,86.27Z"/><path class="cls-4" d="M41,85.71s-12.33-4.56-7.87,3c6.24,10.6,43.72,11.72,51.21-2.67,1-2-1.48-6.1-9.6-.34C74.7,85.71,50.32,94.47,41,85.71Z"/><ellipse class="cls-7" cx="57.78" cy="87.17" rx="17.89" ry="9.6"/><path class="cls-2" d="M172.58,82.43s-1.3-4.73-11.65.65c-2.44-3.75-9.08-6.45-16.9-6.45s-14.45,2.69-16.89,6.44c-4.64-1.94-11.29-3.61-12.15,2.25-1.26,8.56,9,34.55,32.72,31.52,3.14-.4,7.58-1.11,10.26-2.78C165.21,109.55,178.05,98,172.58,82.43Z"/><path class="cls-8" d="M131.69,85.32s-15.37-9.13-16.7,0c-1.26,8.56,9,34.55,32.72,31.52,3.14-.4,7.58-1.11,10.26-2.78,7.24-4.51,20.08-16.1,14.61-31.63,0,0-1.47-5.35-13.72,1.78S131.69,85.32,131.69,85.32Z"/><path class="cls-4" d="M127.22,84.77s-12.33-4.56-7.88,3c6.25,10.6,43.73,11.72,51.22-2.67,1.05-2-1.48-6.1-9.61-.34C161,84.77,136.58,93.53,127.22,84.77Z"/><ellipse class="cls-9" cx="144.03" cy="86.23" rx="17.89" ry="9.6"/><path class="cls-2" d="M140.84,110s-1.8-6.54-16.11.89c-3.37-5.18-12.55-8.9-23.35-8.9s-20,3.72-23.35,8.9c-6.43-2.69-15.62-5-16.81,3.11-1.73,11.84,12.5,47.76,45.24,43.57,4.34-.55,10.48-1.54,14.19-3.85C130.65,147.54,148.41,131.51,140.84,110Z"/><path class="cls-10" d="M84.31,114s-21.24-12.62-23.09,0c-1.73,11.84,12.5,47.76,45.24,43.57,4.34-.55,10.48-1.54,14.19-3.85,10-6.22,27.76-22.25,20.19-43.72,0,0-2-7.39-19,2.46S84.31,114,84.31,114Z"/><path class="cls-4" d="M78.14,110.87s-17.06-7.3-10.9,4.82c8.63,17,60.45,18.75,70.8-4.28,1.46-3.23-2-9.77-13.27-.54C124.77,110.87,91.07,124.89,78.14,110.87Z"/><ellipse class="cls-11" cx="101.38" cy="115.29" rx="24.72" ry="13.27"/></g></g></svg>