<svg xmlns="http://www.w3.org/2000/svg" viewBox="0 0 196.23 196.23"><defs><style>.cls-1{fill:#fff;}.cls-2{fill:#f9d3d3;}.cls-3{fill:#e43830;}.cls-4{fill:none;stroke:#a51f24;stroke-miterlimit:10;stroke-width:6.47px;}.cls-5{fill:#e7c359;}.cls-6{fill:#c09f58;}.cls-7{fill:#f1e0b6;}.cls-8{fill:#ecbb00;}.cls-9{fill:#f2977d;}.cls-10{fill:#feecd2;}</style></defs><title>資產 256</title><g id="圖層_2" data-name="圖層 2"><g id="圖層_5" data-name="圖層 5"><rect class="cls-1" width="196.23" height="196.23"/><path class="cls-2" d="M57.1,166c-.87-.67-1.72-1.35-2.56-2.06A74.24,74.24,0,1,1,147.77,166"/><rect class="cls-3" x="59.41" y="60.28" width="81.61" height="81.61" transform="translate(100.83 -41.26) rotate(45)"/><rect class="cls-4" x="57.07" y="57.39" width="86.3" height="86.3" transform="translate(100.45 -41.42) rotate(45)"/><rect class="cls-5" x="79.13" y="84.87" width="40.16" height="5.87" rx="2.91" ry="2.91"/><rect class="cls-5" x="79.13" y="98" width="40.16" height="5.87" rx="2.91" ry="2.91"/><rect class="cls-5" x="79.13" y="111.13" width="40.16" height="5.87" rx="2.91" ry="2.91"/><path class="cls-1" d="M71.72,166.06c-1.13,0-2-1.28-2-2.86s.91-2.87,2-2.87h47.52c1.77,0,3.21-2,3.21-4.49s-1.44-4.5-3.21-4.5H99.45c-1.12,0-2-1.28-2-2.86s.92-2.86,2-2.86h11.19c1.77,0,3.2-2,3.2-4.5s-1.43-4.5-3.2-4.5H70.7c-1.77,0-3.21,2-3.21,4.5s1.44,4.5,3.21,4.5H86.22c1.12,0,2,1.28,2,2.86s-.92,2.86-2,2.86H43.11c-1.77,0-3.21,2-3.21,4.5s1.44,4.49,3.21,4.49H58.48c1.13,0,2,1.29,2,2.87s-.91,2.86-2,2.86"/><path class="cls-6" d="M159.42,166c-.45-.41,1.91-2.72,1.91-2.72s-115.79,0-115.82,0a74.87,74.87,0,0,1-14.76-20.1A80.91,80.91,0,0,1,38.6,56.57a56,56,0,0,1,28.52-6,57.09,57.09,0,0,0-25.64,2.49,80.93,80.93,0,0,1,23.7-18.74,85.2,85.2,0,0,1,14.7-6c5.07-1.57,10.23-2.78,15.51-4a51.84,51.84,0,0,0-16.14,1.84,79,79,0,0,0-15.19,6,83.6,83.6,0,0,0-41.28,48.7,81,81,0,0,0-2.45,9.58,48.91,48.91,0,0,1-6.43-6.78,74.44,74.44,0,0,0,3.87-18.59A73.89,73.89,0,0,1,11.5,83.4h0l-.28.58.41.58a53.18,53.18,0,0,0,8.21,8.6,82.25,82.25,0,0,0-.74,20.07,83.4,83.4,0,0,0,19.78,47.21l-.69-.25a34.83,34.83,0,0,0-7-1.47c-.57-.05-1.13-.1-1.7-.13A62.64,62.64,0,0,0,5.24,138.66a61.7,61.7,0,0,1,21.66,19.9c-.93,0-1.87.07-2.8.18a21.3,21.3,0,0,0-6.78,1.95c2.36-.1,4.62-.2,6.88-.17a42.53,42.53,0,0,1,13.22,2,47.06,47.06,0,0,1,5.38,2.14c.44.45.88.89,1.33,1.33"/><path class="cls-6" d="M160.41,166a92.68,92.68,0,0,0,8.37-9.45,53.75,53.75,0,0,0,11.85,2.35l.71,0,.33-.55h0a74.13,74.13,0,0,1,12.1-15.15,74.46,74.46,0,0,0-13.59,13.26,50.34,50.34,0,0,1-9.89-2,84.94,84.94,0,0,0,7.25-12.17c.5-1.09,1-2.2,1.44-3.31l.72-1.65c.23-.56.49-1.1.67-1.68l1.17-3.41c.39-1.14.81-2.27,1.09-3.44s.67-2.32.93-3.49l.77-3.53.6-3.56c.2-1.19.29-2.39.45-3.58a81.82,81.82,0,0,0-2.06-28.66,83.47,83.47,0,0,0-31.49-46.94,77.41,77.41,0,0,0-12.3-7.44,47.82,47.82,0,0,0-13.68-4.22c4.29,2.13,8.53,4.07,12.65,6.27a80.84,80.84,0,0,1,42.09,53,80.54,80.54,0,0,1,1.85,27.67c-.14,1.15-.23,2.31-.43,3.46l-.57,3.43-.74,3.41c-.25,1.13-.6,2.24-.89,3.37s-.68,2.22-1.05,3.32l-1.13,3.29a15.2,15.2,0,0,1-.65,1.62l-.69,1.6c-.46,1.07-.91,2.14-1.39,3.2A88.36,88.36,0,0,1,156.22,166"/><path class="cls-7" d="M61.48,38.9a3.85,3.85,0,0,1-1.24-.55,3.56,3.56,0,0,1-1.08-1.23,3.72,3.72,0,0,1-.31-.76,3.18,3.18,0,0,1-.1-.8A3.33,3.33,0,0,1,59.08,34a3.11,3.11,0,0,1,.84-1.06l.12-.1-.15-.05a2.31,2.31,0,0,1-.51-.22,3.42,3.42,0,0,1-.71-.49,3.65,3.65,0,0,1-.56-.68,3.15,3.15,0,0,1-.38-.8l-.09-.32L57.58,30a.66.66,0,0,1,0-.14v-.08a4.07,4.07,0,0,1,0-.89l.08-.33.11-.32.06-.13,0-.07a3.49,3.49,0,0,1,2.77-2h.07l.15,0h.44l.22,0a1.59,1.59,0,0,1,.3.06,2.36,2.36,0,0,1,.53.17l.07,0,.13.06.18.1a2.41,2.41,0,0,1,.36.23l.16.14v-.19a4.32,4.32,0,0,1,.35-1.81,4.64,4.64,0,0,1,1.25-1.66,4.55,4.55,0,0,1,1.89-.94,4.64,4.64,0,0,1,2.13,0,4.59,4.59,0,0,1,1.9.94,4.57,4.57,0,0,1,1.67,3.73A4.34,4.34,0,0,1,72,28.61l-.09.17.2-.05a2.18,2.18,0,0,1,.42-.05H73a2.28,2.28,0,0,1,.54.08l.31.08.2.07.11.05.09,0,.2.1.12.08.06,0a3.49,3.49,0,0,1,1.61,3v.08a.61.61,0,0,1,0,.14l0,.34-.07.33a3.15,3.15,0,0,1-.35.82l0,.07s0,.08-.07.13l-.2.27-.22.25a3.48,3.48,0,0,1-.7.54,3.14,3.14,0,0,1-.8.36,3.69,3.69,0,0,1-.85.13,3.5,3.5,0,0,1-.56,0l-.15,0,.06.15a3.09,3.09,0,0,1,.29,1.31,3.33,3.33,0,0,1-.39,1.55,3.82,3.82,0,0,1-.45.68,3.19,3.19,0,0,1-.61.54,3.53,3.53,0,0,1-1.51.63,3.61,3.61,0,0,1-1.35,0,3.45,3.45,0,0,1-1.67-.93,3.31,3.31,0,0,1-.84-1.35A3.23,3.23,0,0,1,65.53,37l-.16,0a3.16,3.16,0,0,1-.64,1,3.43,3.43,0,0,1-1.35.84A3.31,3.31,0,0,1,61.48,38.9Z"/><path class="cls-8" d="M67.27,29.19a18.22,18.22,0,0,1-.42,2.56,17,17,0,0,1-.76,2.49,18.6,18.6,0,0,1,.42-2.57A16.88,16.88,0,0,1,67.27,29.19Z"/><path class="cls-8" d="M65.31,29.51a19.42,19.42,0,0,1,1.52,2.11,17.41,17.41,0,0,1,1.22,2.3,19.42,19.42,0,0,1-1.52-2.11A17.41,17.41,0,0,1,65.31,29.51Z"/><path class="cls-8" d="M64.16,31.13a16.87,16.87,0,0,1,2.56.42,18.27,18.27,0,0,1,2.49.75,19.74,19.74,0,0,1-5-1.17Z"/><path class="cls-8" d="M64.48,33.09a16.33,16.33,0,0,1,2.11-1.52,19.36,19.36,0,0,1,2.29-1.23,16.33,16.33,0,0,1-2.11,1.52A17.91,17.91,0,0,1,64.48,33.09Z"/><path class="cls-8" d="M67.77,28.64a.36.36,0,0,1-.44.27.36.36,0,0,1-.27-.43.36.36,0,0,1,.44-.27A.36.36,0,0,1,67.77,28.64Z"/><path class="cls-8" d="M66.3,35a.36.36,0,0,1-.43.27.36.36,0,0,1-.27-.44.36.36,0,0,1,.43-.27A.36.36,0,0,1,66.3,35Z"/><path class="cls-8" d="M65.28,28.77a.37.37,0,0,1-.12.5.36.36,0,0,1-.5-.11.37.37,0,0,1,.12-.5A.36.36,0,0,1,65.28,28.77Z"/><path class="cls-8" d="M68.7,34.27a.36.36,0,1,1-.61.38.36.36,0,0,1,.11-.5A.37.37,0,0,1,68.7,34.27Z"/><path class="cls-8" d="M63.61,30.63a.36.36,0,1,1-.43.27A.35.35,0,0,1,63.61,30.63Z"/><circle class="cls-8" cx="69.83" cy="32.45" r="0.36"/><path class="cls-8" d="M63.74,33.12a.36.36,0,1,1-.11.5A.36.36,0,0,1,63.74,33.12Z"/><path class="cls-8" d="M69.24,29.69a.36.36,0,1,1,.38.62.36.36,0,0,1-.38-.62Z"/><path class="cls-7" d="M173.64,106.48a5.06,5.06,0,0,1-3.34-2.55,5,5,0,0,1-.44-1.1,4.81,4.81,0,0,1-.15-1.16,4.87,4.87,0,0,1,.48-2.24,4.6,4.6,0,0,1,1.2-1.52l.18-.15-.22-.07a4.71,4.71,0,0,1-.73-.31,5.42,5.42,0,0,1-1-.72,5.2,5.2,0,0,1-.81-1,4.94,4.94,0,0,1-.55-1.15l-.13-.46L168,93.6c0-.07,0-.14,0-.21v-.11a5.38,5.38,0,0,1,.08-1.28l.11-.48.16-.45.09-.2a.69.69,0,0,0,0-.1,5,5,0,0,1,4-2.88l.1,0h.85l.31,0,.44.09a5.26,5.26,0,0,1,.76.24l.1,0,.19.08.27.15a3.77,3.77,0,0,1,.51.34l.23.19v-.27a6.31,6.31,0,0,1,.51-2.6,6.75,6.75,0,0,1,1.8-2.4,6.55,6.55,0,0,1,2.73-1.35,6.73,6.73,0,0,1,3.06,0,6.75,6.75,0,0,1,4.59,3.77,6.49,6.49,0,0,1,.55,3,6.12,6.12,0,0,1-.68,2.56l-.13.23.3-.06a3.3,3.3,0,0,1,.6-.08l.32,0h.3a4,4,0,0,1,.79.12,3.17,3.17,0,0,1,.44.12l.3.11.14.06.14.07.29.14.17.11.09.06a5,5,0,0,1,2.32,4.35s0,.07,0,.11v.21l-.06.49-.11.47a5.29,5.29,0,0,1-.5,1.18l-.05.1-.11.18-.29.39-.32.36a4.63,4.63,0,0,1-1,.78,4.56,4.56,0,0,1-1.15.52,5.12,5.12,0,0,1-1.23.19,3.55,3.55,0,0,1-.8,0l-.22,0,.09.21a4.53,4.53,0,0,1,.41,1.89,4.84,4.84,0,0,1-.55,2.23,5.21,5.21,0,0,1-.66,1,5,5,0,0,1-.87.78,5.09,5.09,0,0,1-2.18.9,5.34,5.34,0,0,1-1.95-.07,4.87,4.87,0,0,1-2.4-1.33,5,5,0,0,1-1.2-2,4.45,4.45,0,0,1-.22-1.64l-.24-.06a4.72,4.72,0,0,1-.91,1.38,5,5,0,0,1-2,1.22A4.89,4.89,0,0,1,173.64,106.48Z"/><path class="cls-8" d="M182,92.5a29,29,0,0,1-1.69,7.27A27.86,27.86,0,0,1,182,92.5Z"/><path class="cls-8" d="M179.16,93a24.81,24.81,0,0,1,2.18,3,26.08,26.08,0,0,1,1.77,3.3,27.89,27.89,0,0,1-4-6.34Z"/><path class="cls-8" d="M177.5,95.3A27.86,27.86,0,0,1,184.77,97a29,29,0,0,1-7.27-1.69Z"/><path class="cls-8" d="M178,98.12a27.89,27.89,0,0,1,6.34-4,25.6,25.6,0,0,1-3,2.18A26.08,26.08,0,0,1,178,98.12Z"/><path class="cls-8" d="M182.7,91.72a.52.52,0,1,1-1-.24.52.52,0,0,1,.63-.39A.53.53,0,0,1,182.7,91.72Z"/><path class="cls-8" d="M180.59,100.79a.53.53,0,0,1-.63.4.53.53,0,0,1-.39-.63.52.52,0,0,1,.63-.39A.51.51,0,0,1,180.59,100.79Z"/><path class="cls-8" d="M179.12,91.91a.52.52,0,1,1-.89.55.52.52,0,0,1,.89-.55Z"/><path class="cls-8" d="M184,99.82a.52.52,0,0,1-.16.72.53.53,0,0,1-.72-.17.52.52,0,1,1,.88-.55Z"/><path class="cls-8" d="M176.72,94.57a.53.53,0,0,1,.39.63.52.52,0,0,1-.63.39.51.51,0,0,1-.39-.62A.52.52,0,0,1,176.72,94.57Z"/><circle class="cls-8" cx="185.67" cy="97.19" r="0.52"/><path class="cls-8" d="M176.9,98.16a.53.53,0,0,1,.56.89.53.53,0,0,1-.56-.89Z"/><path class="cls-8" d="M184.81,93.23a.53.53,0,0,1,.56.89.53.53,0,0,1-.72-.17A.52.52,0,0,1,184.81,93.23Z"/><path class="cls-9" d="M103,31.11a4.12,4.12,0,0,1-1.23-.77,3.88,3.88,0,0,1-1-1.47,4,4,0,0,1-.21-.86,3.73,3.73,0,0,1,0-.88,3.55,3.55,0,0,1,.59-1.61,3.45,3.45,0,0,1,1-1l.14-.09-.15-.07a4.33,4.33,0,0,1-.51-.31,4.28,4.28,0,0,1-.69-.64,3.75,3.75,0,0,1-.49-.8,3.61,3.61,0,0,1-.29-.91l0-.36V21a.86.86,0,0,1,0-.16v-.08a4.42,4.42,0,0,1,.19-.95l.14-.33.16-.33.08-.13,0-.07a3.77,3.77,0,0,1,3.26-1.72h.24l.23,0,.12,0,.11,0,.23.05.32.11a3.9,3.9,0,0,1,.54.26l.07,0a.57.57,0,0,0,.13.08l.18.14a2.45,2.45,0,0,1,.34.31l.16.16,0-.2a4.6,4.6,0,0,1,.65-1.87A4.9,4.9,0,0,1,109,14.78a4.82,4.82,0,0,1,2.16-.72,5,5,0,0,1,2.27.3,5.16,5.16,0,0,1,1.89,1.3,4.89,4.89,0,0,1,1.23,4.22,4.62,4.62,0,0,1-.78,1.83l-.11.16.22,0a3.53,3.53,0,0,1,.46,0l.23,0,.15,0,.08,0a2.92,2.92,0,0,1,.57.16l.31.13.21.12.1.06.1.06.2.14a.52.52,0,0,1,.11.1l.07,0a3.78,3.78,0,0,1,1.26,3.46.28.28,0,0,0,0,.09l0,.15-.1.36-.13.33A3.37,3.37,0,0,1,119,28l0,.06a.64.64,0,0,1-.1.13l-.25.26-.27.23a3.88,3.88,0,0,1-.83.48,3.32,3.32,0,0,1-.9.26,3.65,3.65,0,0,1-.94,0,4,4,0,0,1-.58-.11l-.17-.05,0,.16a3.53,3.53,0,0,1,.11,1.45,3.73,3.73,0,0,1-.64,1.59,3.92,3.92,0,0,1-.59.66,3.72,3.72,0,0,1-.73.49,3.81,3.81,0,0,1-1.71.44,3.73,3.73,0,0,1-1.43-.26,3.63,3.63,0,0,1-1.64-1.23,3.8,3.8,0,0,1-.69-1.57,3.44,3.44,0,0,1,0-1.24l-.17-.07a3.47,3.47,0,0,1-.83.93,3.74,3.74,0,0,1-3.61.52Z"/><path class="cls-10" d="M110.67,21.61a18.78,18.78,0,0,1-.83,2.67,18.29,18.29,0,0,1-1.18,2.54,20.16,20.16,0,0,1,.83-2.67A18.84,18.84,0,0,1,110.67,21.61Z"/><path class="cls-10" d="M108.53,21.67a20.15,20.15,0,0,1,1.31,2.47,18.79,18.79,0,0,1,1,2.63,18.3,18.3,0,0,1-1.3-2.48A18.25,18.25,0,0,1,108.53,21.67Z"/><path class="cls-10" d="M107.06,23.22a21.76,21.76,0,0,1,5.22,2,17.35,17.35,0,0,1-2.68-.83A18.78,18.78,0,0,1,107.06,23.22Z"/><path class="cls-10" d="M107.12,25.35a19.51,19.51,0,0,1,2.48-1.3,18.21,18.21,0,0,1,2.62-1,18.8,18.8,0,0,1-2.47,1.3A18.79,18.79,0,0,1,107.12,25.35Z"/><path class="cls-10" d="M111.29,21.1a.39.39,0,1,1-.73-.28.38.38,0,0,1,.5-.22A.4.4,0,0,1,111.29,21.1Z"/><path class="cls-10" d="M108.78,27.61a.39.39,0,1,1-.22-.5A.38.38,0,0,1,108.78,27.61Z"/><path class="cls-10" d="M108.61,20.87a.39.39,0,0,1-.2.52.38.38,0,0,1-.51-.2.4.4,0,0,1,.19-.52A.41.41,0,0,1,108.61,20.87Z"/><path class="cls-10" d="M111.44,27.25a.39.39,0,1,1-.51-.2A.38.38,0,0,1,111.44,27.25Z"/><path class="cls-10" d="M106.56,22.6a.39.39,0,0,1-.29.73.38.38,0,0,1-.22-.5A.39.39,0,0,1,106.56,22.6Z"/><circle class="cls-10" cx="112.92" cy="25.47" r="0.39"/><path class="cls-10" d="M106.32,25.28a.4.4,0,0,1,.52.19.39.39,0,0,1-.2.52.38.38,0,0,1-.51-.2A.38.38,0,0,1,106.32,25.28Z"/><path class="cls-10" d="M112.7,22.44a.4.4,0,0,1,.51.2.39.39,0,0,1-.2.52.38.38,0,0,1-.51-.2A.39.39,0,0,1,112.7,22.44Z"/><path class="cls-9" d="M21.32,59.64a3.9,3.9,0,0,1-.81-1.21,3.81,3.81,0,0,1-.29-1.74,4.78,4.78,0,0,1,.16-.87,3.5,3.5,0,0,1,.37-.8A3.61,3.61,0,0,1,22,53.79a3.52,3.52,0,0,1,1.36-.48l.17,0-.11-.13a3.23,3.23,0,0,1-.33-.49,4.13,4.13,0,0,1-.37-.86,4.32,4.32,0,0,1-.12-.94,3.42,3.42,0,0,1,.11-.95l.1-.34.14-.34L23,49.1,23,49a3.48,3.48,0,0,1,.56-.78l.26-.26.28-.22a1,1,0,0,1,.13-.09l.07,0A3.78,3.78,0,0,1,28,47.4l.07,0,.14.07.21.13.1.06.09.07.19.14.25.23a3.68,3.68,0,0,1,.38.46l0,.07.09.12.11.21a3.14,3.14,0,0,1,.19.41l.07.22.1-.17A4.69,4.69,0,0,1,31.38,48a5,5,0,0,1,2.1-.8,4.9,4.9,0,0,1,2.26.23,5,5,0,0,1,1.95,1.21,5.11,5.11,0,0,1,1.19,2,4.92,4.92,0,0,1,.21,2.27A5,5,0,0,1,38.27,55a4.65,4.65,0,0,1-1.46,1.34l-.17.1.21.08a2.68,2.68,0,0,1,.42.19l.2.12.13.08.06,0a3.68,3.68,0,0,1,.46.38l.23.25.14.19.07.1.06.1.12.2a.61.61,0,0,1,.07.14l0,.07A3.81,3.81,0,0,1,38.58,62l0,.07-.09.13-.23.28-.26.26a3.41,3.41,0,0,1-.78.55l-.07,0-.15.07-.33.14-.35.1a3.74,3.74,0,0,1-1.88,0,3.49,3.49,0,0,1-.86-.37,3.08,3.08,0,0,1-.49-.34l-.13-.11,0,.17a3.34,3.34,0,0,1-.5,1.36,3.49,3.49,0,0,1-1.23,1.19,4.22,4.22,0,0,1-.81.36,3.89,3.89,0,0,1-.86.15,3.81,3.81,0,0,1-1.74-.3,3.77,3.77,0,0,1-1.2-.82,3.72,3.72,0,0,1-1-1.8,3.84,3.84,0,0,1,0-1.72,3.57,3.57,0,0,1,.51-1.12L26,60.14a3.47,3.47,0,0,1-2.85.5A3.61,3.61,0,0,1,21.32,59.64Z"/><path class="cls-10" d="M32.17,54.1a19.56,19.56,0,0,1-1.85,2.1A19.7,19.7,0,0,1,28.2,58a21.78,21.78,0,0,1,4-3.94Z"/><path class="cls-10" d="M30.2,53.28a18.66,18.66,0,0,1,.17,2.79,18.93,18.93,0,0,1-.2,2.8,21.2,21.2,0,0,1,0-5.59Z"/><path class="cls-10" d="M28.22,54.09a19.56,19.56,0,0,1,2.1,1.85,18.56,18.56,0,0,1,1.83,2.12,18.51,18.51,0,0,1-2.09-1.86A17.61,17.61,0,0,1,28.22,54.09Z"/><path class="cls-10" d="M27.4,56.06a18.66,18.66,0,0,1,2.79-.17,18.7,18.7,0,0,1,2.79.2,18.66,18.66,0,0,1-2.79.17A18.7,18.7,0,0,1,27.4,56.06Z"/><path class="cls-10" d="M32.94,53.89a.38.38,0,0,1-.55,0,.39.39,0,1,1,.55,0Z"/><path class="cls-10" d="M28,58.8a.38.38,0,0,1-.55,0,.38.38,0,0,1,0-.55.39.39,0,0,1,.55.55Z"/><path class="cls-10" d="M30.59,52.59a.39.39,0,0,1-.39.39.41.41,0,0,1-.39-.4.4.4,0,0,1,.4-.39A.38.38,0,0,1,30.59,52.59Z"/><path class="cls-10" d="M30.57,59.56a.4.4,0,0,1-.79,0,.4.4,0,0,1,.79,0Z"/><path class="cls-10" d="M28,53.32a.39.39,0,0,1,0,.55.39.39,0,1,1-.55-.55A.39.39,0,0,1,28,53.32Z"/><circle class="cls-10" cx="32.64" cy="58.55" r="0.39"/><path class="cls-10" d="M26.7,55.67a.38.38,0,0,1,.39.39.39.39,0,1,1-.78,0A.38.38,0,0,1,26.7,55.67Z"/><path class="cls-10" d="M33.68,55.7a.39.39,0,0,1,.39.39.4.4,0,0,1-.79,0A.39.39,0,0,1,33.68,55.7Z"/><path class="cls-3" d="M3.61,115.61a8.37,8.37,0,0,1-2.42-6.51,7.9,7.9,0,0,1,1.15-3.69A8.09,8.09,0,0,1,5,102.7a7.55,7.55,0,0,1,3-1.07l.37,0-.24-.29a8,8,0,0,1-.75-1.08,9.51,9.51,0,0,1-.8-1.91,8.1,8.1,0,0,1-.27-2.06,8,8,0,0,1,.24-2.1l.23-.77.3-.73a3,3,0,0,1,.16-.31l.08-.16a9,9,0,0,1,1.24-1.74l.58-.56.63-.5.28-.19.16-.1a8.34,8.34,0,0,1,8.13-.53l.16.08.31.16.45.27.22.14.21.15.42.32.54.52a6.65,6.65,0,0,1,.84,1l.1.15c.07.09.13.19.19.28l.24.45a6,6,0,0,1,.42.92l.16.48.23-.39a10.36,10.36,0,0,1,3-3.19,10.83,10.83,0,0,1,9.63-1.27,11,11,0,0,1,6.94,7,10.8,10.8,0,0,1-1.36,9.63,10.06,10.06,0,0,1-3.21,3l-.38.22.47.17a5.47,5.47,0,0,1,.91.43l.46.25.27.19.15.1a6.66,6.66,0,0,1,1,.85c.18.18.35.36.51.55l.31.42.16.21.13.22.27.45a3,3,0,0,1,.16.31l.07.16a8.34,8.34,0,0,1-.59,8.13l-.1.15c-.07.1-.13.2-.2.29L41,122l-.57.57a8.58,8.58,0,0,1-1.74,1.22l-.16.08-.31.16-.75.3-.76.22a8.74,8.74,0,0,1-2.09.22,8,8,0,0,1-4-1.11,7.58,7.58,0,0,1-1.09-.76l-.28-.24,0,.37a7.56,7.56,0,0,1-1.1,3,8,8,0,0,1-2.73,2.63,8.34,8.34,0,0,1-1.78.79,8.38,8.38,0,0,1-8.41-2.15,8,8,0,0,1-2.2-4,8.4,8.4,0,0,1,0-3.8A7.81,7.81,0,0,1,14.14,117l-.28-.29a7.57,7.57,0,0,1-2.5,1.12,8.09,8.09,0,0,1-3.79,0A8,8,0,0,1,3.61,115.61Z"/><path class="cls-10" d="M27.6,103.38A42.23,42.23,0,0,1,23.5,108a41.1,41.1,0,0,1-4.67,4,41,41,0,0,1,4.09-4.63A42.18,42.18,0,0,1,27.6,103.38Z"/><path class="cls-10" d="M23.24,101.55a42.73,42.73,0,0,1,.38,6.18,41.44,41.44,0,0,1-.44,6.18,42.73,42.73,0,0,1-.38-6.18A41.44,41.44,0,0,1,23.24,101.55Z"/><path class="cls-10" d="M18.86,103.35a40.24,40.24,0,0,1,4.64,4.1,41.18,41.18,0,0,1,4.06,4.67,40.24,40.24,0,0,1-4.64-4.1A41.18,41.18,0,0,1,18.86,103.35Z"/><path class="cls-10" d="M17,107.71a41.36,41.36,0,0,1,6.18-.38,41.2,41.2,0,0,1,6.17.43,41.37,41.37,0,0,1-6.18.39A42.78,42.78,0,0,1,17,107.71Z"/><path class="cls-10" d="M29.3,102.92a.87.87,0,0,1-1.22,0,.86.86,0,1,1,1.22,0Z"/><path class="cls-10" d="M18.35,113.77a.86.86,0,1,1,0-1.22A.87.87,0,0,1,18.35,113.77Z"/><path class="cls-10" d="M24.11,100a.87.87,0,0,1-.86.86.87.87,0,1,1,.86-.86Z"/><path class="cls-10" d="M24.05,115.44a.87.87,0,1,1-.86-.87A.88.88,0,0,1,24.05,115.44Z"/><path class="cls-10" d="M18.4,101.65a.86.86,0,0,1,0,1.22.87.87,0,1,1,0-1.22Z"/><circle class="cls-10" cx="28.64" cy="113.2" r="0.86"/><path class="cls-10" d="M15.51,106.83a.87.87,0,1,1-.86.86A.86.86,0,0,1,15.51,106.83Z"/><path class="cls-10" d="M30.93,106.9a.87.87,0,1,1-.87.86A.87.87,0,0,1,30.93,106.9Z"/></g></g></svg>