<svg xmlns="http://www.w3.org/2000/svg" viewBox="0 0 196.23 196.23"><defs><style>.cls-1{fill:#fff;}.cls-2{fill:#e43830;stroke:#a51f24;stroke-miterlimit:10;stroke-width:6px;}.cls-3{fill:#e6dc77;}.cls-4{fill:#a51f24;}</style></defs><title>資產 252</title><g id="圖層_2" data-name="圖層 2"><g id="圖層_5" data-name="圖層 5"><rect class="cls-1" width="196.23" height="196.23"/><path class="cls-2" d="M121.38,85.09c11.23-11.49,16.36-25.73,15.16-35.69-1-8.34-13.34-3.69-17.66-.5a5.27,5.27,0,0,1-6.79-.44c-8.34-8.15-13.55-6.56-13.55-6.56-7-1-9.75,5-12.33,8.16-1.39,1.71-3.79.43-5.87-.33-26.65-9.81-11.74,19.7,2,35.36.16.18-37.09,13.31-37.09,45.18,0,25.13,12.25,30,32.72,30.55,14.28.38,47.86.17,57.91-1.31,23-3.36,22.58-24.31,22.77-38C158.78,115.23,156.5,99.81,121.38,85.09Z"/><path class="cls-3" d="M85.28,123.21a43.7,43.7,0,0,0,7-2.65A15.73,15.73,0,0,1,96,119c.35,0,1.23,1.07,2.89,3.19.23.83.06,1.42-.53,1.65a4.25,4.25,0,0,0-1.72,1.42A19.76,19.76,0,0,0,93.89,129a12.4,12.4,0,0,0,3.54,2.83c.47.41.53,1.24.18,2.36s-1.06,1.53-1.89.94a19.72,19.72,0,0,0-3-1.89c0,5.55,0,9.92.12,13.1v6c-.36,1.18-1.65,1.3-4,.53-.59-.35-.64-.65-.11-1.12a1.78,1.78,0,0,0,.7-1.59l.24-15.05a1.77,1.77,0,0,0-.12-.59l-2.06,2.6c-3,3.42-5.25,5.43-6.67,6.14a5.2,5.2,0,0,1-3.13.47c-1.24-.06-1.35-.42-.23-1.06,2.42-1.6,5.31-4.55,8.67-8.91s4.66-6.85,4-7.5c-.23-.18-1.41.18-3.6,1.06A16.16,16.16,0,0,0,83,129.23c-.7,1.24-1.47.53-2.36-2.12s-.94-3.54.24-3C81.09,124.28,82.5,124,85.28,123.21Zm3.6-8.85c-.83-2.24-.95-4.07-.36-5.43,1-2.24,2.07-2.77,3.25-1.65a14.19,14.19,0,0,1,1,2,6.29,6.29,0,0,0,1.59,2.54c.53.76,1,1.47,1.48,2.18.23.29.06.77-.41,1.36a2.39,2.39,0,0,1-2.48.47c-1.12-.24-2.13-.41-2.84-.53S88.88,114.89,88.88,114.36ZM103,151.54q-3.11-4.87-5.14-14.16c-.47-1-.41-1.54.24-1.66a9.3,9.3,0,0,0,2.6-.71,86,86,0,0,1,9.26-1.65c6.49-1.18,10.68-1.41,12.63-.7,4.36,1.41,6.13,2.89,5.31,4.36a17.65,17.65,0,0,0-2.89,6.37c-.83,2.6-2,5.73-3.54,9.5-.59,1.24-1,1.83-1.24,1.6a18,18,0,0,1-3.31-2.25c-1.59-1.12-2.77-1.53-3.54-1.24-4.6.42-7.61,1.07-8.91,1.83C103.69,153.07,103.16,152.66,103,151.54ZM106.16,131a34,34,0,0,1-4.78-8.67c-.59-.89-.53-1.36.24-1.48a10.58,10.58,0,0,0,2.3-.35c1.24-.3,3.42-.89,6.61-1.71s5.55-1,7.26-.41c4,1.06,5.43,2.24,4.19,3.48A13,13,0,0,0,118.2,129c-.23.82-.65,1.18-1.12.94a5.3,5.3,0,0,0-1.53-.41,16.4,16.4,0,0,0-7.26,1.12,2.16,2.16,0,0,0-1,.71C106.93,131.65,106.58,131.53,106.16,131ZM102,112.24c-.53-1,0-1.42,1.83-1.24a38.87,38.87,0,0,0,9.21-1.3,37.51,37.51,0,0,1,6.19-1.24c.71,0,1.12.59,1.3,1.71s-.18,1.89-.77,2.13c-2.53,1-4.83,1.89-6.9,2.83s-3.6,1.24-4.42.88-2.25-.11-3.9.59c-.88.42-1.41.06-1.53-1.06A23.09,23.09,0,0,0,102,112.24Zm1.13,26.43a20.53,20.53,0,0,0,1.35,10.21c.12.47,1.3.47,3.54-.06a6.7,6.7,0,0,1,1.24-.23,46.06,46.06,0,0,0,.36-4.78,6.51,6.51,0,0,0-2.54.82c-.89.71-1.71.24-2.36-1.35s-.42-2.25,1-2c.24,0,1.54-.18,4-.59,0-2.48-.29-4-.7-4.49a17.21,17.21,0,0,0-3.66.95C104,137.73,103.27,138.26,103.16,138.67Zm12-17.58c-1.83-.77-4.48-.41-7.9,1-.77.24-1.12,1.12-1,2.6,0,1.65.42,2.42,1.24,2.36a37.35,37.35,0,0,0,6.26-1.06c.53-.24,1.06-1.07,1.59-2.54C115.72,122,115.61,121.21,115.13,121.09Zm5.67,14.75c-.83-.88-3.13-1.06-6.85-.53a2.25,2.25,0,0,0-.29,1.18,17.44,17.44,0,0,0-.12,3.6,3.37,3.37,0,0,0,1-.12c2.78-.82,4.07-.77,3.9.18a4.22,4.22,0,0,0-.12,2.24c0,.59-1,.71-2.83.35-.83.12-1.48.24-2,.3-.12,2.77-.06,4.37.24,4.78a7.94,7.94,0,0,0,1.59-.12c.59-.18.94.06,1.06.71a2.41,2.41,0,0,0,.3,1.36c.23.29.65.23,1.35-.24.83-.83,1.66-3.19,2.66-7.08C121.51,138.61,121.51,136.37,120.8,135.84Z"/><path class="cls-4" d="M130.54,88.41S109.24,92,102.08,92s-28.45-3.57-28.45-3.57a4.26,4.26,0,0,1-4-4.46v-1.3a4.26,4.26,0,0,1,4-4.45s21.29,3.56,28.45,3.56,28.46-3.56,28.46-3.56a4.26,4.26,0,0,1,4,4.45V84A4.27,4.27,0,0,1,130.54,88.41Z"/></g></g></svg>