<svg xmlns="http://www.w3.org/2000/svg" width="20" height="20" viewBox="0 0 20 20">
    <path fill-rule="nonzero" d="M7.5 17.5h5c-.147 1.667-.988 2.5-2.525 2.5s-2.362-.833-2.475-2.5zm.625-12.864l-.7-1.292A10.226 10.226 0 0 1 9.977 3c.818 0 1.67.116 2.552.344l-.7 1.292a7.446 7.446 0 0 0-1.852-.256c-.567 0-1.184.084-1.852.256zM18 13.887v.12c0 1.3-.747 2.105-1.85 2.379-.376.093-.674.114-1.13.114H4.98c-.455 0-.753-.02-1.13-.114C2.748 16.112 2 15.308 2 14.007v-.12c0-.772.288-1.5.798-2.05L3.1 9.196c.042-2.737 1.674-5.191 4.1-6.287v-.08C7.199 1.273 8.451 0 10 0c1.55 0 2.801 1.272 2.801 2.83v.079c2.426 1.096 4.058 3.55 4.1 6.287l.301 2.642c.51.55.799 1.278.798 2.049zm-3.092-4.516l-.006-.105c-.016-2.153-1.411-4.071-3.41-4.723l-.69-.225V2.83c0-.46-.364-.83-.802-.83-.437 0-.801.37-.801.83v1.488l-.69.225c-1.999.652-3.394 2.57-3.41 4.723l-.007.105-.395 3.467-.323.257a1 1 0 0 0-.374.792v.12c0 .304.061.37.332.438.174.043.346.055.647.055h10.042c.3 0 .473-.012.647-.055.27-.067.332-.134.332-.438v-.12a.999.999 0 0 0-.374-.791l-.322-.258-.396-3.467z"/>
</svg>
