<svg xmlns="http://www.w3.org/2000/svg" width="20" height="20" viewBox="0 0 20 20">
    <path fill-rule="nonzero" d="M6.902 8.697C6.852 3.996 7.873 1.9 9.756 1.9c1.881 0 2.895 2.094 2.833 6.795a.9.9 0 1 0 1.8.024C14.463 3.144 12.989.1 9.756.1 6.525.1 5.043 3.142 5.102 8.716a.9.9 0 1 0 1.8-.019zM3.8 5.8v12.4h12.4V5.8H3.8zm3.102 2.897C6.852 3.996 7.873 1.9 9.756 1.9c1.881 0 2.895 2.094 2.833 6.795a.9.9 0 1 0 1.8.024C14.463 3.144 12.989.1 9.756.1 6.525.1 5.043 3.142 5.102 8.716a.9.9 0 1 0 1.8-.019zM3.5 4h13A1.5 1.5 0 0 1 18 5.5v13a1.5 1.5 0 0 1-1.5 1.5h-13A1.5 1.5 0 0 1 2 18.5v-13A1.5 1.5 0 0 1 3.5 4z"/>
</svg>
