<svg xmlns="http://www.w3.org/2000/svg" width="20" height="20" viewBox="0 0 20 20">
    <path fill-rule="nonzero" d="M17.319 4.843l-2.1-.011-2.01-3.022a.664.664 0 0 0-.55-.31H7.242a.661.661 0 0 0-.539.299L4.626 4.832l-1.945.01C1.21 4.843 0 6.06 0 7.545v8.733C0 17.76 1.209 19 2.681 19H17.32C18.79 19 20 17.76 20 16.277V7.544c0-1.484-1.209-2.701-2.681-2.701zm.87 11.24c0 .711-.582 1.317-1.287 1.317H3.086c-.705 0-1.286-.606-1.286-1.316V7.84c0-.71.58-1.295 1.286-1.295h2.168a.624.624 0 0 0 .508-.282L7.722 3.4h4.45l1.888 2.842a.64.64 0 0 0 .508.282l2.324.02c.705 0 1.286.586 1.286 1.296v8.244h.01zM10.25 8.5a2.753 2.753 0 0 0-2.75 2.75A2.76 2.76 0 0 0 10.25 14 2.76 2.76 0 0 0 13 11.25a2.76 2.76 0 0 0-2.75-2.75zm0-2A4.76 4.76 0 0 1 15 11.25 4.76 4.76 0 0 1 10.25 16a4.76 4.76 0 0 1-4.75-4.75 4.753 4.753 0 0 1 4.75-4.75zM4 10a1 1 0 1 1 0-2 1 1 0 0 1 0 2zM2 3.9a.9.9 0 0 1 0-1.8h1.5a.9.9 0 0 1 0 1.8H2z"/>
</svg>
