<svg xmlns="http://www.w3.org/2000/svg" viewBox="0 0 48 48"><path d="M40.17,41.91a1.07,1.07,0,0,1-.52-.14l-7.52-4.48a22.08,22.08,0,0,1-7.58,1.3c-10.3,0-18.68-6.83-18.68-15.24S14.25,8.11,24.55,8.11,43.23,15,43.23,23.35a13.29,13.29,0,0,1-3.08,8.41,1,1,0,0,1-1.41.14,1,1,0,0,1-.15-1.4,11.28,11.28,0,0,0,2.64-7.15c0-7.3-7.48-13.24-16.68-13.24S7.87,16.05,7.87,23.35s7.48,13.24,16.68,13.24a20.11,20.11,0,0,0,7.32-1.34,1,1,0,0,1,.87.08l5.58,3.31-1.2-3.43A1,1,0,1,1,39,34.55l2.1,6a1,1,0,0,1-.94,1.33Z"/><path d="M19.06,23.71a2,2,0,1,1-2-2A2,2,0,0,1,19.06,23.71Zm5.25-2a2,2,0,1,0,2,2A2,2,0,0,0,24.31,21.73Zm7.23,0a2,2,0,1,0,2,2A2,2,0,0,0,31.54,21.73Z"/></svg>