<?xml version="1.0" encoding="UTF-8" standalone="no"?>
<!-- Generator: Adobe Illustrator 15.1.0, SVG Export Plug-In . SVG Version: 6.00 Build 0)  -->

<svg
   xmlns:dc="http://purl.org/dc/elements/1.1/"
   xmlns:cc="http://creativecommons.org/ns#"
   xmlns:rdf="http://www.w3.org/1999/02/22-rdf-syntax-ns#"
   xmlns:svg="http://www.w3.org/2000/svg"
   xmlns="http://www.w3.org/2000/svg"
   xmlns:sodipodi="http://sodipodi.sourceforge.net/DTD/sodipodi-0.dtd"
   xmlns:inkscape="http://www.inkscape.org/namespaces/inkscape"
   version="1.1"
   id="圖層_1"
   x="0px"
   y="0px"
   width="480"
   height="480"
   viewBox="0 0 479.99998 479.99999"
   enable-background="new 0 0 595.28 793.7"
   xml:space="preserve"
   sodipodi:docname="ruru.svg"
   inkscape:version="0.92.1 r15371"><metadata
     id="metadata6159"><rdf:RDF><cc:Work
         rdf:about=""><dc:format>image/svg+xml</dc:format><dc:type
           rdf:resource="http://purl.org/dc/dcmitype/StillImage" /></cc:Work></rdf:RDF></metadata><defs
     id="defs6157" /><sodipodi:namedview
     pagecolor="#ffffff"
     bordercolor="#666666"
     borderopacity="1"
     objecttolerance="10"
     gridtolerance="10"
     guidetolerance="10"
     inkscape:pageopacity="0"
     inkscape:pageshadow="2"
     inkscape:window-width="1920"
     inkscape:window-height="1018"
     id="namedview6155"
     showgrid="false"
     inkscape:zoom="0.99"
     inkscape:cx="-254.84989"
     inkscape:cy="240"
     inkscape:window-x="1912"
     inkscape:window-y="-8"
     inkscape:window-maximized="1"
     inkscape:current-layer="g66" /><g
     id="g66"
     transform="translate(-56.558196,-111.03314)"><path
       d="M 62.024,310.66"
       id="path10"
       inkscape:connector-curvature="0" /><path
       d="M 86.723,419.107"
       id="path12"
       inkscape:connector-curvature="0" /><rect
       x="160.705"
       y="455.86499"
       width="18.351"
       height="55.198002"
       id="rect14"
       style="fill:#ffffff;fill-opacity:0.80392158" /><rect
       x="142.002"
       y="474.47101"
       width="55.104"
       height="18.108999"
       id="rect16"
       style="fill:#FFF;fill-opacity:0.7" /><rect
       x="418.56699"
       y="455.98901"
       width="18.243"
       height="55.074001"
       id="rect18"
       style="fill:#ffffff;fill-opacity:0.69999999" /><rect
       x="400.32999"
       y="474.57999"
       width="55.068001"
       height="18"
       id="rect20"
       style="fill:#FFF;fill-opacity:0.7" /><g
       id="g28"
       style="fill:#FFF;fill-opacity:0.7"><rect
         x="234.086"
         y="476.02701"
         width="18.325001"
         height="18.315001"
         id="rect22"
         style="fill:#FFF;fill-opacity:0.7" /><rect
         x="252.411"
         y="494.34299"
         width="92.334999"
         height="18.690001"
         id="rect24"
         style="fill:#FFF;fill-opacity:0.7" /><rect
         x="345.151"
         y="475.82599"
         width="17.945"
         height="18.531"
         id="rect26"
         style="fill:#FFF;fill-opacity:0.7" /></g><rect
       x="68.219002"
       y="419.23199"
       width="18.49"
       height="39.021"
       id="rect30"
       style="fill:#FFF;fill-opacity:0.7" /><rect
       x="68.219002"
       y="455.89301"
       width="36.884998"
       height="18.507"
       id="rect32"
       style="fill:#FFF;fill-opacity:0.7" /><rect
       x="105.104"
       y="474.39899"
       width="18.573"
       height="36.91"
       id="rect34"
       style="fill:#FFF;fill-opacity:0.7" /><rect
       x="123.677"
       y="511.31"
       width="18.135"
       height="18.523001"
       id="rect36"
       style="fill:#FFF;fill-opacity:0.7" /><rect
       x="141.812"
       y="529.83301"
       width="37.094002"
       height="18.205999"
       id="rect38"
       style="fill:#FFF;fill-opacity:0.7" /><rect
       x="178.83"
       y="547.03699"
       width="239.743"
       height="18.688"
       id="rect40"
       style="fill:#FFF;fill-opacity:0.7" /><rect
       x="418.366"
       y="529.771"
       width="36.962002"
       height="17.343"
       id="rect42"
       style="fill:#FFF;fill-opacity:0.7" /><rect
       x="455.33301"
       y="511.31"
       width="18.391001"
       height="18.452"
       id="rect44"
       style="fill:#FFF;fill-opacity:0.7" /><rect
       x="473.724"
       y="474.47101"
       width="18.448999"
       height="36.839001"
       id="rect46"
       style="fill:#FFF;fill-opacity:0.7" /><rect
       x="492.173"
       y="456.01501"
       width="18.523001"
       height="18.455999"
       id="rect48"
       style="fill:#FFF;fill-opacity:0.7" /><rect
       x="510.60001"
       y="400.78401"
       width="18.450001"
       height="55.696999"
       id="rect50"
       style="fill:#FFF;fill-opacity:0.7" /><polygon
       points="197.427,179.457 142.203,179.457 142.203,216.275 123.663,216.275 123.663,253.413 86.919,253.413 86.919,290.093 68.314,290.093 68.314,419.407 123.531,419.407 123.531,456.247 142.141,456.247 142.141,400.754 160.354,400.754 160.354,382.146 197.434,382.146 197.434,363.928 215.647,363.928 215.647,345.45 252.728,345.45 252.728,326.909 270.938,326.909 270.938,290.229 289.543,290.229 289.543,326.909 363.244,326.909 363.244,290.158 381.521,290.158 381.521,326.858 418.524,326.858 418.524,345.45 436.736,345.45 436.736,363.928 455.339,363.928 455.339,382.335 455.339,456.037 473.803,456.037 473.91,419.361 510.732,419.361 510.732,400.754 529.18,400.754 529.18,271.693 492.188,271.693 492.188,234.816 473.899,234.816 473.899,198.125 436.757,198.125 436.757,179.598 400.066,179.598 400.066,142.785 197.427,142.785 "
       id="polygon52"
       style="fill:#FFF;fill-opacity:0.7" /><g
       id="g58"
       style="fill:#FFF;fill-opacity:0.7"><rect
         x="160.736"
         y="401.23801"
         width="19.003"
         height="36.867001"
         id="rect54"
         style="fill:#FFF;fill-opacity:0.7" /><rect
         x="160.722"
         y="419.08401"
         width="36.860001"
         height="19.004999"
         id="rect56"
         style="fill:#FFF;fill-opacity:0.7" /></g><g
       id="g64"
       style="fill:#FFF;fill-opacity:0.7"><rect
         x="400.672"
         y="401.23801"
         width="19.004999"
         height="36.867001"
         id="rect60"
         style="fill:#FFF;fill-opacity:0.7" /><rect
         x="400.66101"
         y="419.08401"
         width="36.865002"
         height="19.004999"
         id="rect62"
         style="fill:#FFF;fill-opacity:0.7" /></g></g></svg>